<!--<svg width="566.2" height="88.2" xmlns="http://www.w3.org/2000/svg" class="bam-logo">-->
<svg viewBox="0 0 566.2 88.2" xmlns="http://www.w3.org/2000/svg" class="bam-logo">
 <title>Parrot Testing</title>
 <!--<g class="logo-vessel logo-left">
   <polygon points="0.699999988079071,49.67656272649765 18.200000762939453,69.19999730587006 55.79999923706055,69.19999730587006 55.79999923706055,49.599998474121094 " />
   <polygon points="0,45 55.79999923706055,45 55.79999923706055,-1 " />
   <polygon points="116.9000015258789,45 61.099998474121094,45 61.099998474121094,-1 " />
 </g>-->
  <!--<g class="logo-text">-->
  <!--<rect x="-1" y="-1" width="568.2" height="90.2" id="canvas_background" fill="none"/>-->
   <!--<rect x="62.2" y="50.7" width="12.999999" height="35.7" />
   <polygon points="88,50.70000076293945 102.19094563574981,50.70000076293945 120.90906060786438,70.4000015258789 120.90906060786438,50.70000076293945 135.1000062436142,50.70000076293945 135.1000062436142,86.4000015258789 120.56080863771058,86.4000015258789 102.10387932209778,66.5999984741211 102.10387932209778,86.4000015258789 88,86.4000015258789 " />
   <polygon points="140.1999969482422,50.70000076293945 186.60000610351562,50.70000076293945 186.60000610351562,59.5 171.04644775390625,59.5 171.04644775390625,86.4000015258789 155.8404541015625,86.4000015258789 155.8404541015625,59.599998474121094 140.1999969482422,59.599998474121094 " />
   <polygon points="191.58538818359375,50.70000076293945 231.7169189453125,50.70000076293945 231.7169189453125,58 206.52798461914062,58 206.52798461914062,64.19999694824219 229.92379760742188,64.19999694824219 229.92379760742188,71.30000305175781 206.4425811767578,71.30000305175781 206.4425811767578,78.5 232.39999389648438,78.5 232.39999389648438,86.4000015258789 191.5,86.4000015258789 " />
   <polygon points="273.692577958107,4.906182289123535 299.3925596475601,4.906182289123535 299.3925596475601,12.756160736083984 285.8925596475601,12.756160736083984 285.8925596475601,18.2363338470459 297.692577958107,18.2363338470459 297.692577958107,26.08631134033203 285.7925840616226,26.08631134033203 285.7925840616226,33.19573211669922 299.3925596475601,33.19573211669922 299.3925596475601,41.193817138671875 273.692577958107,41.193817138671875 "/>
   <path  d="m286.966137,81.3c-1.062526,0.3 -5.047,2.6 -5.843895,2.8s-1.770877,0.7 -2.479228,0.9s-1.59379,0.6 -2.833404,0.8c-2.213597,0.4 -4.073018,0.9 -6.286615,1.1s-4.515737,0.3 -6.906422,0.3c-4.515737,0.1 -9.120018,-0.5 -13.547212,-1.8c-3.718842,-1.1 -7.172053,-3.3 -9.916913,-6.4c-2.479228,-2.8 -3.807386,-6.6 -3.718842,-10.6c0,-2.8 0.708351,-5.5 1.947965,-7.9c1.328158,-2.7 3.364667,-4.9 5.843895,-6.2c2.125053,-1.3 4.33865,-2.3 6.64079,-3c2.125053,-0.7 4.33865,-1.1 6.552246,-1.4c2.125053,-0.2 4.427193,-0.3 6.994966,-0.3c3.453211,-0.1 6.994966,0.2 10.448176,0.7c2.74486,0.5 9.562738,2.9 12.484685,9.8l-14.87537,2c-1.239614,-2.1 -3.187579,-3.6 -5.401176,-4.1c-3.984474,-0.5 -6.817878,-0.5 -9.297106,0.7c-1.947965,0.8 -3.541755,2.4 -4.515737,4.4c-0.796895,1.7 -1.15107,3.6 -0.973983,5.5c0,1.9 0.354175,4.6 1.416702,6.1c0.973983,1.7 2.390684,2.9 4.073018,3.5c2.302141,1 5.135544,0.9 8.411667,0.9c1.859421,0 6.198071,-1.4 8.146036,-2.1l0.088544,-3.6l-10.53672,0l0,-7.4l23.995388,0l0,15.3l0.088544,0z" />
   <path  d="m343.30431,86.3l-18.418233,0l-5.142146,-6.5c-1.589391,-2.3 -5.703108,-7.2 -6.731537,-7.4c-1.215416,-0.3 -2.524326,-0.5 -3.833236,-0.3l-1.869871,0l0,14.2l-16.267881,0l0,-35.6l27.861084,0c4.487691,0 10.284293,-0.1 13.182593,1c3.085288,1.2 4.581185,2.5 5.890095,4.5c0.934936,1.5 1.30891,3.2 1.215416,5c-0.093494,1.8 -0.747949,3.4 -1.869871,4.7c-1.028429,1.3 -2.991794,2.1 -4.207211,2.8c-1.963365,1.1 -4.113717,1.8 -6.357563,2c2.337339,0 4.955159,1.8 6.077082,2.7c1.869871,1.7 3.552756,3.6 4.955159,5.7l5.516121,7.2zm-21.877495,-24.9c0,-1.6 -0.934936,-3.1 -2.430833,-3.5c-1.682884,-0.7 -4.300704,-1 -8.040447,-1l-3.459262,0l0,8.8l3.552756,0c4.020223,0 6.731537,-0.3 8.227434,-0.9c1.30891,-0.4 2.243846,-1.8 2.150352,-3.4z" />
   <path  d="m339.748385,42.453337l-10.6,0c0,0 -6.3,-14.367479 -7,-14.520325s-0.1,-0.305691 -1.5,-0.305691l-1.4,0l0,14.978862l-9.5,0l0,-37.599999l13.8,0c3.3,0 7.6,0 9.7,1.069919s2.5,2.598374 3.5,4.738211c0.7,1.528455 1,3.362602 0.9,5.196748c-0.1,1.834146 -0.6,3.515447 -1.4,4.891057c-0.5,1.222764 -1.2,2.139837 -2,2.904065c-1.2,1.222764 -2.6,1.834146 -4.1,2.139837c1.4,0.152846 2.8,1.834146 3.6,2.904065s1.4,3.056911 2.8,5.960976l3.2,7.642276zm-11.7,-26.136585c0,-1.834146 -0.6,-2.598374 -1.8,-3.362602s-3.2,-0.611382 -5.9,-0.611382l-1,0l0,7.947967l1.1,0c2.9,0 4.9,0.152846 6,-0.458537c1,-0.458537 1.6,-1.986992 1.6,-3.515447z" />
   <path  d="m403.273394,86.3l-17.526703,0l-2.647262,-5.7l-18.074413,0l-2.647262,5.7l-16.248714,0l19.352402,-35.7l17.617988,0l20.173966,35.7zm-23.551508,-13.6l-5.933519,-12.5l-5.294525,12.5l11.228044,0z" />
   <path  d="m205.90726,41.899999l-10.3,0l-1.5,-5.787097l-10.6,0l-1.6,5.787097l-9.5,0l11.3,-36.8l10.3,0l11.9,36.8zm-13.8,-14.096774l-3.5,-12.909677l-3.1,12.909677l6.6,0z" />
   <path  d="m379.710212,42.506182l-10.3,0l-1.5,-5.944354l-10.6,0l-1.6,5.944354l-9.5,0l11.4,-37.799997l10.3,0l11.8,37.799997zm-13.7,-14.479838l-3.5,-13.260483l-3.1,13.260483l6.6,0z" />
   <polygon points="406.64952409267426,50.09381866455078 422.73823869228363,50.09381866455078 422.73823869228363,77.19381713867188 448.1124452352524,77.19381713867188 448.1124452352524,85.69381713867188 406.64952409267426,85.69381713867188 " />
   <polygon points="138.39483964443207,6.200001239776611 146.9948457479477,6.200001239776611 158.4948457479477,25.856678009033203 158.4948457479477,6.200001239776611 167.2948487997055,6.200001239776611 167.2948487997055,41.900001525878906 158.2948487997055,41.900001525878906 146.9948457479477,22.387853622436523 146.9948457479477,41.755462646484375 138.2948487997055,41.900001525878906 " />
   <polygon points="210.79380476474762,5.248387336730957 220.69381392002106,5.248387336730957 227.79380476474762,31.216129302978516 234.49381697177887,5.09999942779541 243.99381697177887,5.09999942779541 232.49381697177887,41.900001525878906 222.39381086826324,41.900001525878906 " />
   <rect x="252.849462" y="5.299999" width="9.3" height="36.600001" />
  </g>-->
   <!--<g class="logo-vessel logo-right" >
    <polygon points="446.6878356933594,50.193817138671875 497.64255502074957,50.193817138671875 481.3963167062029,64.59381103515625 446.6878356933594,64.59381103515625 " />
   </g>-->
 <!--</g>-->
</svg>
