<svg width="148" height="148" viewBox="0 0 148 148" fill="none" xmlns="http://www.w3.org/2000/svg">
<mask id="mask0" mask-type="alpha" maskUnits="userSpaceOnUse" x="-1" y="0" width="149" height="148">
<path d="M73.9999 148C114.869 148 148 114.869 148 74C148 33.1309 114.869 0 73.9999 0C33.1308 0 -0.00012207 33.1309 -0.00012207 74C-0.00012207 114.869 33.1308 148 73.9999 148Z" fill="#EFEFEF"/>
</mask>
<g mask="url(#mask0)">
<path d="M73.4999 163.579C124.586 163.579 166 123.255 166 73.5132C166 23.7712 124.586 -16.5526 73.4999 -16.5526C22.4135 -16.5526 -19.0001 23.7712 -19.0001 73.5132C-19.0001 123.255 22.4135 163.579 73.4999 163.579Z" fill="#F6F7F9"/>
<path d="M-32.2701 92.9187C-11.6101 92.9187 -8.81014 75.9474 8.05986 75.9474C24.9899 75.9474 -4.14014 92.9187 15.0299 92.9187C34.1999 92.9187 35.6099 75.9474 52.2999 75.9474C68.9899 75.9474 42.9199 92.9187 63.3299 92.9187C83.7399 92.9187 85.7399 75.9571 99.6799 75.9571C116.11 75.9571 95.1999 92.9284 108.64 92.9284C122.08 92.9284 127.56 75.9571 142 75.9571C156.44 75.9571 137.02 92.9284 154.95 92.9284V145.098H-32.2701V92.9187Z" fill="#0B75D6"/>
<path d="M-41.1002 115.07C-20.4402 115.07 -17.6402 98.0987 -0.770218 98.0987C16.1598 98.0987 -12.9702 115.07 6.19978 115.07C25.3698 115.07 26.7798 98.0987 43.4698 98.0987C60.1598 98.0987 34.0898 115.07 54.4998 115.07C74.9098 115.07 76.9098 98.0987 90.8498 98.0987C107.28 98.0987 86.3698 115.07 99.8098 115.07C113.25 115.07 118.73 98.0987 133.17 98.0987C147.61 98.0987 128.19 115.07 146.12 115.07V167.24H-41.1002V115.07Z" fill="#00B0FF"/>
<path d="M103.3 67.3375H98.951V68.5866H103.3V67.3375Z" fill="#002349"/>
<path d="M103.3 40.8947H98.951V42.1438H103.3V40.8947Z" fill="#002349"/>
<path d="M79.6441 47.1549C71.0085 47.1549 63.9999 53.9791 63.9999 62.3874V150.37H78.2048V70.1712C78.2048 63.5299 80.0039 61.0317 87.5913 61.0317H99.5591V47.1549H79.6441Z" fill="#002F6C"/>
<path d="M98.9508 68.5874C103.133 68.5874 106.523 62.3882 106.523 54.7411C106.523 47.094 103.133 40.8947 98.9508 40.8947C94.769 40.8947 91.379 47.094 91.379 54.7411C91.379 62.3882 94.769 68.5874 98.9508 68.5874Z" fill="#001E3E"/>
<path d="M103.302 68.5874C107.484 68.5874 110.874 62.3882 110.874 54.7411C110.874 47.094 107.484 40.8947 103.302 40.8947C99.1203 40.8947 95.7303 47.094 95.7303 54.7411C95.7303 62.3882 99.1203 68.5874 103.302 68.5874Z" fill="#002F6C"/>
<path d="M111.998 54.7411C111.998 60.5751 107.618 65.2972 104.427 65.2972C101.235 65.2972 98.6538 60.5751 98.6538 54.7411C98.6538 48.907 101.235 44.185 104.427 44.185C107.618 44.185 111.998 48.907 111.998 54.7411Z" fill="#DCDEE0"/>
<path d="M50.014 116.842H89.9858C113.187 116.842 132 135.285 132 158.029V167.182C132 189.926 113.187 208.368 89.9858 208.368H50.014C26.8129 208.368 7.99988 189.926 7.99988 167.182V158.029C7.99988 135.285 26.8129 116.842 50.014 116.842Z" fill="#002F6C"/>
<g style="mix-blend-mode:hard-light">
<path d="M-32.0001 92.9187C-11.3401 92.9187 -8.54012 75.9474 8.32988 75.9474C25.2599 75.9474 -3.87012 92.9187 15.2999 92.9187C34.4699 92.9187 35.8799 75.9474 52.5699 75.9474C69.2599 75.9474 43.1899 92.9187 63.5999 92.9187C84.0099 92.9187 86.0099 75.9571 99.9499 75.9571C116.38 75.9571 95.4699 92.9284 108.91 92.9284C122.35 92.9284 127.83 75.9571 142.27 75.9571C156.71 75.9571 137.29 92.9284 155.22 92.9284V149.967H-32.0001V92.9187Z" fill="#90A7D3" fill-opacity="0.65"/>
</g>
</g>
<path d="M124.214 30.2543L124.439 29.4167C124.633 28.6922 124.956 28.1036 125.409 27.6507C125.862 27.1978 126.581 26.7797 127.565 26.3964C128.509 26.0427 129.153 25.7219 129.497 25.434C129.849 25.1481 130.083 24.7862 130.2 24.3486C130.332 23.8581 130.251 23.436 129.957 23.0824C129.664 22.7287 129.193 22.465 128.544 22.2911C127.412 21.9878 126.022 22.0118 124.375 22.3631L123.806 19.5535C125.741 19.0611 127.652 19.0677 129.539 19.5732C131.093 19.9897 132.227 20.6939 132.94 21.6856C133.661 22.6794 133.854 23.7989 133.52 25.044C133.298 25.8741 132.917 26.5404 132.378 27.043C131.839 27.5456 130.94 28.0327 129.681 28.5043C128.813 28.8459 128.244 29.1301 127.973 29.3567C127.709 29.5854 127.517 29.9261 127.396 30.3789L127.214 31.0581L124.214 30.2543ZM122.815 34.0285C122.984 33.3946 123.283 32.9609 123.709 32.7274C124.136 32.4939 124.673 32.4641 125.322 32.638C125.949 32.8058 126.387 33.1013 126.638 33.5243C126.896 33.9493 126.942 34.4713 126.776 35.0901C126.617 35.6862 126.317 36.1114 125.877 36.3655C125.438 36.612 124.91 36.6524 124.291 36.4866C123.657 36.3168 123.211 36.0193 122.953 35.5943C122.697 35.1617 122.651 34.6397 122.815 34.0285Z" fill="#FF6600"/>
</svg>
