<svg viewBox="0 0 16 16" xmlns="http://www.w3.org/2000/svg">
  <title>calendar</title>
  <path d="M11.5022 2.0954H13.625C14.6601 2.0954 15.5 2.93454 15.5 3.9704V13.6285C15.5 14.6636 14.6601 15.5035 13.625 15.5035H0.5V13.6285V3.9704C0.5 2.93529 1.33989 2.0954 2.375 2.0954L4.49194 2.09538V1.01744C4.49194 0.490475 4.90284 0.494533 5.36867 0.499134C5.41253 0.499567 5.45687 0.500005 5.50141 0.500005C5.54135 0.500005 5.5811 0.4997 5.62043 0.499397C6.09077 0.495783 6.5028 0.492616 6.5028 1.01746V2.0954H9.49609V1.01746C9.49609 0.497622 9.90437 0.498654 10.3909 0.499884L10.4629 0.500005C10.5072 0.500005 10.5516 0.499571 10.5957 0.49914C11.066 0.49454 11.5022 0.490273 11.5022 1.01746V2.0954ZM2.5 13.5026H13.5V4.51808H2.5V13.5026ZM4 6.50254H6V8.50254H4V6.50254ZM7 6.50254H9V8.50254H7V6.50254ZM12 6.50254H10V8.50254H12V6.50254ZM6 9.50254H4V11.5025H6V9.50254ZM9 9.50254H7V11.5025H9V9.50254ZM10 9.50254H12V11.5025H10V9.50254Z"/>
</svg>
