<svg viewBox="0 0 16 16" xmlns="http://www.w3.org/2000/svg">
  <title>compass</title>
  <path d="M9.5,8A1.5,1.5,0,1,1,8,6.5,1.5,1.5,0,0,1,9.5,8ZM16,8.75A8,8,0,0,1,8.75,16a.2.2,0,0,1-.22-.19V14.61a.2.2,0,0,0-.2-.2H7.67a.2.2,0,0,0-.2.2v1.18a.2.2,0,0,1-.22.19A8,8,0,0,1,0,8.75a.2.2,0,0,1,.19-.22H1.39a.2.2,0,0,0,.2-.2V7.67a.19.19,0,0,0-.2-.2H.21A.2.2,0,0,1,0,7.25,8,8,0,0,1,7.25,0a.2.2,0,0,1,.22.19V1.39a.2.2,0,0,0,.2.2h.66a.2.2,0,0,0,.2-.2V.21A.2.2,0,0,1,8.75,0,8,8,0,0,1,16,7.25a.2.2,0,0,1-.19.22H14.61a.19.19,0,0,0-.2.2v.66a.2.2,0,0,0,.2.2h1.18A.2.2,0,0,1,16,8.75ZM11.64,4.09l-5,2.49a.2.2,0,0,0-.09.09l-2.49,5a.2.2,0,0,0,.27.27l5-2.49a.2.2,0,0,0,.09-.09l2.49-5A.2.2,0,0,0,11.64,4.09Z"/>
</svg>
