<svg xmlns="http://www.w3.org/2000/svg" viewBox="0 0 16 16">
  <title>crew</title>
  <path d="M9.6,2.94A2.48,2.48,0,0,1,14,4.52a2.5,2.5,0,0,1-2.48,2.53l-.23,0a3.59,3.59,0,0,0,.14-1A3.5,3.5,0,0,0,9.6,2.94Zm1.53,7.43a4.38,4.38,0,0,0-1.81-1.1l-.38-.11a4.3,4.3,0,0,0-.72-.09H7.77a4.38,4.38,0,0,0-1.09.2,4.5,4.5,0,0,0-2.9,2.85h0a4.45,4.45,0,0,0-.24,1.52l8.92,0v0a4.57,4.57,0,0,0-1.33-3.2ZM5.68,8.62a3.39,3.39,0,0,1-.77-1,2.57,2.57,0,0,0-.48,0h0A4.49,4.49,0,0,0,0,12.13H2.77A5.51,5.51,0,0,1,5.68,8.62ZM4.46,7.05l.23,0a3.59,3.59,0,0,1-.14-1A3.5,3.5,0,0,1,6.4,2.94,2.48,2.48,0,0,0,2,4.52,2.5,2.5,0,0,0,4.46,7.05Zm7.05.52h0a3,3,0,0,0-.42,0,3.39,3.39,0,0,1-.77,1,5.52,5.52,0,0,1,2.91,3.49H16v0A4.5,4.5,0,0,0,11.51,7.57ZM5.48,6A2.52,2.52,0,1,0,8,3.51,2.52,2.52,0,0,0,5.48,6Z"/>
</svg>
