<svg viewBox="0 0 16 16" xmlns="http://www.w3.org/2000/svg">
  <title>network</title>
  <path d="M11.759 2.60556C12.8468 3.41384 13.5978 4.82163 13.5978 6.46014C13.5978 8.09866 12.8468 9.50644 11.759 10.3147L12.9518 11.9201C14.5682 10.7191 15.5978 8.70505 15.5978 6.46014C15.5978 4.21524 14.5682 2.2012 12.9518 1.00018L11.759 2.60556ZM2.40216 6.46014C2.40216 4.82163 3.15309 3.41384 4.24095 2.60556L3.04815 1.00018C1.43172 2.2012 0.402161 4.21524 0.402161 6.46014C0.402161 8.70505 1.43172 10.7191 3.04815 11.9201L4.24095 10.3147C3.15309 9.50644 2.40216 8.09866 2.40216 6.46014ZM6.28159 4.95358C5.81922 5.27259 5.50592 5.82296 5.50592 6.45976C5.50592 7.09655 5.81922 7.64692 6.28159 7.96593L5.14581 9.61214C4.15162 8.92621 3.50592 7.76521 3.50592 6.45976C3.50592 5.15431 4.15162 3.9933 5.14581 3.30737L6.28159 4.95358ZM10.4938 6.45976C10.4938 5.82296 10.1805 5.27259 9.7181 4.95358L10.8539 3.30737C11.8481 3.9933 12.4938 5.15431 12.4938 6.45976C12.4938 7.76521 11.8481 8.92621 10.8539 9.61214L9.7181 7.96593C10.1805 7.64692 10.4938 7.09655 10.4938 6.45976ZM8.77507 7.80552C9.23986 7.53719 9.55266 7.03499 9.55266 6.45974C9.55266 5.60213 8.85742 4.90689 7.9998 4.90689C7.14219 4.90689 6.44695 5.60213 6.44695 6.45974C6.44695 7.03404 6.75871 7.53552 7.22222 7.80418L7.22222 14.9998H8.77507V7.80552Z"/>
</svg>
