<svg viewBox="0 0 16 16" xmlns="http://www.w3.org/2000/svg">
  <title>quote requests</title>
  <path d="M3.19998 0H9.6L14.4 4.8V14.4C14.4 15.28 13.68 16 12.8 16H3.19198C2.31198 16 1.59998 15.28 1.59998 14.4L1.60798 1.6C1.60798 0.72 2.31998 0 3.19998 0ZM9.59985 0.800049V4.80006H13.5999L9.59985 0.800049ZM9.61773 11.0596C9.88457 10.7883 10.018 10.4681 10.018 10.0989C10.018 9.77427 9.93127 9.51855 9.75782 9.33176C9.58882 9.14052 9.38647 9.00265 9.15076 8.91815C8.9195 8.82921 8.62597 8.74693 8.27018 8.67133C7.95442 8.60462 7.72538 8.54013 7.58307 8.47787C7.44075 8.4156 7.3696 8.32221 7.3696 8.19768C7.3696 8.07316 7.42964 7.97309 7.54971 7.89749C7.66979 7.81744 7.86103 7.77741 8.12342 7.77741C8.54147 7.77741 8.97287 7.89749 9.4176 8.13764L9.82453 7.157C9.64219 7.05027 9.43317 6.96354 9.19746 6.89683C8.96619 6.83012 8.72381 6.78565 8.47031 6.76341V6.04294H7.66979V6.77676C7.14945 6.83902 6.75142 7.00802 6.47568 7.28375C6.19994 7.55504 6.06208 7.88192 6.06208 8.26439C6.06208 8.58905 6.14658 8.847 6.31558 9.03823C6.48458 9.22947 6.68693 9.36956 6.92264 9.45851C7.15835 9.54301 7.45187 9.62306 7.80321 9.69866C8.12342 9.76982 8.35468 9.83875 8.497 9.90546C8.64376 9.96773 8.71714 10.0656 8.71714 10.199C8.71714 10.4525 8.46364 10.5792 7.95665 10.5792C7.68981 10.5792 7.41852 10.537 7.14278 10.4525C6.86705 10.368 6.62467 10.2568 6.41564 10.1189L5.98203 11.0929C6.17771 11.2263 6.42454 11.3397 6.72251 11.4331C7.02048 11.5221 7.33624 11.5777 7.66979 11.5999V12.3137H8.47031V11.5732C8.97287 11.4976 9.35534 11.3264 9.61773 11.0596Z" />
</svg>
